# xmcd
#
# Track frame offsets:
#	151
#	10762
#	27751
#	40390
#	54613
#	66278
#	79373
#	90432
#	101267
#	114354
#
# Disc length: 1704 seconds
#
# Revision: 0
# Processed by: cddbd v1.5.1PL0 Copyright (c) Steve Scherf et al.
# Submitted via: EasyCDDAExtractor 8.0.1.1
#
DISCID=7306a60a
DTITLE=Various Artist - Daniel Santos y Estrellas de la Matancera 17379
DYEAR=1900
DGENRE=
TTITLE0=Daniel Santos - Irresistible
TTITLE1=Celio González - Un poco más
TTITLE2=Daniel Santos - Bajo un palmar
TTITLE3=Bienvenido Granda - Soñar
TTITLE4=Daniel Santos - Capullito de alhelí
TTITLE5=Leo Marini - El amor de mi bohío
TTITLE6=Daniel Santos - Mi delito
TTITLE7=Celio González - Ansiándote
TTITLE8=Daniel Santos - Esperanza inútil
TTITLE9=Bienvenido Granda - Que si, que si
EXTD=
EXTT0=
EXTT1=
EXTT2=
EXTT3=
EXTT4=
EXTT5=
EXTT6=
EXTT7=
EXTT8=
EXTT9=
PLAYORDER=
